# xmcd
#
# Track frame offsets:
#  182
#  12317
#  23390
#  30707
#  44982
#  70287
#  85702
#  100837
#  125082
#  159440
#  183820
#  210380
#  225847
#  242715
#  263780
#  284522
#  310630
#  317437
#
# Disc length: 4535 seconds
#
# Revision: 4
# Processed by: cddbd v1.5.2PL0 Copyright (c) Steve Scherf et al.
# Submitted via: AltoMP3_Maker 3.0
#
DISCID=e311b512
DTITLE=Earth, Wind and Fire - Greatest Hits Live
DYEAR=1900
DGENRE=
TTITLE0=In The Stone
TTITLE1=September
TTITLE2=Let Your Feelings Show
TTITLE3=Let's Groove
TTITLE4=Sun Goddess
TTITLE5=Can't Hide Love
TTITLE6=Boogie Wonderland
TTITLE7=Fantasy
TTITLE8=Reasons
TTITLE9=That's The Way of the World
TTITLE10=Africano
TTITLE11=I'll Write A Song For You
TTITLE12=Be Ever Wonderful
TTITLE13=After The Love Is Gone
TTITLE14=Shining Star
TTITLE15=System of Survival
TTITLE16=Sing A Song
TTITLE17=Devotion
EXTD=
EXTT0=
EXTT1=
EXTT2=
EXTT3=
EXTT4=
EXTT5=
EXTT6=
EXTT7=
EXTT8=
EXTT9=
EXTT10=
EXTT11=
EXTT12=
EXTT13=
EXTT14=
EXTT15=
EXTT16=
EXTT17=
PLAYORDER=
